<?xml version="1.0" encoding="UTF-8" standalone="no"?>
<!-- Generator: Adobe Illustrator 23.1.1, SVG Export Plug-In . SVG Version: 6.00 Build 0)  -->

<svg
   xmlns:dc="http://purl.org/dc/elements/1.1/"
   xmlns:cc="http://creativecommons.org/ns#"
   xmlns:rdf="http://www.w3.org/1999/02/22-rdf-syntax-ns#"
   xmlns:svg="http://www.w3.org/2000/svg"
   xmlns="http://www.w3.org/2000/svg"
   xmlns:sodipodi="http://sodipodi.sourceforge.net/DTD/sodipodi-0.dtd"
   xmlns:inkscape="http://www.inkscape.org/namespaces/inkscape"
   version="1.1"
   id="Ebene_1"
   x="0px"
   y="0px"
   viewBox="0 0 425.20999 144.89"
   xml:space="preserve"
   sodipodi:docname="dito_logo.svg"
   width="425.20999"
   height="144.89"
   inkscape:version="0.92.4 (5da689c313, 2019-01-14)"><metadata
   id="metadata21"><rdf:RDF><cc:Work
       rdf:about=""><dc:format>image/svg+xml</dc:format><dc:type
         rdf:resource="http://purl.org/dc/dcmitype/StillImage" /><dc:title></dc:title></cc:Work></rdf:RDF></metadata><defs
   id="defs19" /><sodipodi:namedview
   pagecolor="#ffffff"
   bordercolor="#666666"
   borderopacity="1"
   objecttolerance="10"
   gridtolerance="10"
   guidetolerance="10"
   inkscape:pageopacity="0"
   inkscape:pageshadow="2"
   inkscape:window-width="1868"
   inkscape:window-height="1016"
   id="namedview17"
   showgrid="false"
   inkscape:zoom="1.60775"
   inkscape:cx="212.49"
   inkscape:cy="40.2"
   inkscape:window-x="52"
   inkscape:window-y="27"
   inkscape:window-maximized="1"
   inkscape:current-layer="Ebene_1" />
<style
   type="text/css"
   id="style2">
	.st0{fill:#F56C6C;}
	.st1{fill:#7FEF98;}
	.st2{fill:#8583F8;}
	.st3{fill:#FF984B;}
	.st4{fill:#FDE787;}
</style>




<g
   id="g837"
   transform="translate(-37.51,-145.31)"><g
     id="g6">
	<path
   style="fill:#f56c6c"
   inkscape:connector-curvature="0"
   id="path4"
   d="m 443.5,255.76 c 6.08,0 10.8,1.46 14.17,4.36 3.37,2.91 5.05,7.01 5.05,12.29 0,5.15 -1.68,9.19 -5.05,12.09 -3.37,2.9 -8.1,4.36 -14.17,4.36 -5.82,0 -10.44,-1.46 -13.88,-4.36 -3.44,-2.91 -5.15,-6.94 -5.15,-12.09 0,-5.28 1.71,-9.38 5.15,-12.29 3.44,-2.91 8.06,-4.36 13.88,-4.36 z m 17.64,-99.31 v 42.22 l -3.77,45.99 h -27.55 l -3.77,-45.99 v -42.22 z"
   class="st0" />
</g><path
     id="path8"
     d="m 78.34,290.2 c -8.2,0 -15.36,-2.01 -21.51,-6.05 -6.15,-4.03 -10.9,-9.88 -14.27,-17.54 -3.37,-7.66 -5.05,-16.85 -5.05,-27.55 0,-11.1 1.75,-20.48 5.25,-28.15 3.5,-7.66 8.39,-13.55 14.67,-17.64 6.28,-4.1 13.51,-6.15 21.71,-6.15 8.99,0 16.22,2.74 21.71,8.23 5.48,5.49 9.02,12.46 10.6,20.91 l -3.17,4.16 v -73.34 h 33.7 v 141.13 h -30.13 l -2.18,-33.7 3.96,2.97 c -0.79,6.61 -2.81,12.36 -6.05,17.25 -3.24,4.89 -7.33,8.69 -12.29,11.4 -4.96,2.71 -10.61,4.07 -16.95,4.07 z m 11.7,-24.78 c 3.83,0 7.1,-1.02 9.81,-3.07 2.71,-2.05 4.79,-5.12 6.25,-9.22 1.45,-4.1 2.18,-9.12 2.18,-15.07 0,-5.55 -0.69,-10.27 -2.08,-14.17 -1.39,-3.9 -3.44,-6.87 -6.15,-8.92 -2.71,-2.05 -5.98,-3.07 -9.81,-3.07 -5.82,0 -10.41,2.15 -13.78,6.44 -3.37,4.3 -5.05,11.07 -5.05,20.32 0,9.25 1.65,16.02 4.96,20.32 3.29,4.29 7.85,6.44 13.67,6.44 z"
     class="st1"
     inkscape:connector-curvature="0"
     style="fill:#7fef98" /><path
     id="path10"
     d="m 183,177.61 c -6.87,0 -11.86,-1.29 -14.97,-3.86 -3.11,-2.58 -4.66,-6.64 -4.66,-12.19 0,-5.68 1.55,-9.81 4.66,-12.39 3.1,-2.58 8.09,-3.86 14.97,-3.86 6.74,0 11.69,1.29 14.87,3.86 3.17,2.58 4.76,6.71 4.76,12.39 0,5.55 -1.59,9.61 -4.76,12.19 -3.17,2.57 -8.13,3.86 -14.87,3.86 z m 16.85,11.49 v 99.11 h -33.7 V 189.1 Z"
     class="st2"
     inkscape:connector-curvature="0"
     style="fill:#8583f8" /><path
     id="path12"
     d="m 294.79,189.1 v 23.99 H 214.51 V 189.1 Z m -29.53,-31.51 v 95.34 c 0,4.76 1.15,8.16 3.47,10.21 2.31,2.05 5.52,3.07 9.62,3.07 3.17,0 5.91,-0.36 8.23,-1.09 2.31,-0.73 4.39,-1.82 6.24,-3.27 l 3.57,20.81 c -3.3,2.38 -7.47,4.23 -12.49,5.55 -5.03,1.32 -10.18,1.98 -15.46,1.98 -7.53,0 -14.04,-1.06 -19.53,-3.17 -5.48,-2.11 -9.71,-5.48 -12.68,-10.11 -2.97,-4.62 -4.53,-10.77 -4.66,-18.44 V 166.9 Z"
     class="st3"
     inkscape:connector-curvature="0"
     style="fill:#ff984b" /><path
     id="path14"
     d="m 357.63,187.12 c 10.44,0 19.59,2.02 27.45,6.04 7.86,4.03 14.01,9.91 18.44,17.64 4.43,7.73 6.64,17.02 6.64,27.85 0,10.84 -2.21,20.12 -6.64,27.85 -4.43,7.73 -10.57,13.61 -18.44,17.64 -7.86,4.03 -17.02,6.05 -27.45,6.05 -10.18,0 -19.23,-2.01 -27.16,-6.05 -7.93,-4.03 -14.11,-9.91 -18.53,-17.64 -4.43,-7.73 -6.64,-17.01 -6.64,-27.85 0,-10.83 2.21,-20.12 6.64,-27.85 4.43,-7.73 10.6,-13.61 18.53,-17.64 7.93,-4.02 16.98,-6.04 27.16,-6.04 z m 0,23.99 c -3.83,0 -7.14,0.93 -9.91,2.78 -2.78,1.85 -4.89,4.83 -6.34,8.92 -1.46,4.1 -2.18,9.38 -2.18,15.86 0,6.48 0.73,11.73 2.18,15.76 1.45,4.03 3.57,7.01 6.34,8.92 2.78,1.92 6.08,2.87 9.91,2.87 3.96,0 7.33,-0.96 10.11,-2.87 2.78,-1.91 4.89,-4.89 6.34,-8.92 1.45,-4.03 2.18,-9.28 2.18,-15.76 0,-6.47 -0.73,-11.76 -2.18,-15.86 -1.46,-4.1 -3.57,-7.07 -6.34,-8.92 -2.77,-1.86 -6.14,-2.78 -10.11,-2.78 z"
     class="st4"
     inkscape:connector-curvature="0"
     style="fill:#fde787" /></g>
</svg>